<svg width="13" height="18" viewBox="0 0 13 18" fill="none" xmlns="http://www.w3.org/2000/svg">
<path d="M6.60537 17.076C6.25215 17.076 5.93289 16.991 5.6476 16.8212C5.36231 16.6514 5.13815 16.4239 4.97512 16.1386C4.5268 16.1386 4.14301 15.9789 3.82376 15.6597C3.5045 15.3404 3.34487 14.9566 3.34487 14.5083V11.6146C2.54333 11.0848 1.90142 10.3851 1.41913 9.51566C0.936851 8.6462 0.695709 7.70201 0.695709 6.6831C0.695709 5.03926 1.26969 3.64336 2.41766 2.49539C3.56563 1.34742 4.96154 0.773438 6.60537 0.773438C8.24921 0.773438 9.64511 1.34742 10.7931 2.49539C11.9411 3.64336 12.515 5.03926 12.515 6.6831C12.515 7.72918 12.2739 8.68016 11.7916 9.53604C11.3093 10.3919 10.6674 11.0848 9.86588 11.6146V14.5083C9.86588 14.9566 9.70625 15.3404 9.38699 15.6597C9.06773 15.9789 8.68394 16.1386 8.23562 16.1386C8.0726 16.4239 7.84844 16.6514 7.56315 16.8212C7.27785 16.991 6.95859 17.076 6.60537 17.076ZM4.97512 14.5083H8.23562V13.7747H4.97512V14.5083ZM4.97512 12.9596H8.23562V12.1852H4.97512V12.9596ZM7.21672 10.5549V8.35411L9.00999 6.56083L8.15411 5.70495L6.60537 7.25369L5.05663 5.70495L4.20075 6.56083L5.99403 8.35411V10.5549H7.21672Z" fill="#70FFED"/>
</svg>
