<svg width="25" height="25" viewBox="0 0 25 25" fill="none" xmlns="http://www.w3.org/2000/svg">
<path d="M6.67197 11.8064C6.60981 11.4059 6.57757 10.9955 6.57757 10.5776C6.57757 6.15936 10.1829 2.57764 14.6302 2.57764C19.0775 2.57764 22.6828 6.15936 22.6828 10.5776C22.6828 11.5757 22.4989 12.5311 22.1628 13.4121C22.093 13.5951 22.0581 13.6866 22.0422 13.758C22.0265 13.8288 22.0204 13.8786 22.0187 13.9511C22.017 14.0242 22.0269 14.1048 22.0468 14.266L22.4494 17.5362C22.4929 17.8902 22.5147 18.0672 22.4558 18.1959C22.4042 18.3086 22.3126 18.3982 22.1987 18.4471C22.0687 18.503 21.8922 18.4772 21.5393 18.4254L18.3541 17.9585C18.1878 17.9342 18.1046 17.922 18.0288 17.9224C17.9539 17.9228 17.9021 17.9284 17.8288 17.9438C17.7546 17.9594 17.66 17.9948 17.4706 18.0658C16.5873 18.3966 15.63 18.5776 14.6302 18.5776C14.212 18.5776 13.8013 18.546 13.4003 18.4849M8.20918 22.5776C11.1741 22.5776 13.5776 20.1152 13.5776 17.0776C13.5776 14.0401 11.1741 11.5776 8.20918 11.5776C5.24429 11.5776 2.84076 14.0401 2.84076 17.0776C2.84076 17.6882 2.93788 18.2756 3.11716 18.8244C3.19294 19.0563 3.23083 19.1723 3.24326 19.2516C3.25625 19.3343 3.25852 19.3808 3.25369 19.4644C3.24905 19.5444 3.22902 19.6349 3.18895 19.8159L2.57761 22.5776L5.57241 22.1686C5.73587 22.1463 5.8176 22.1351 5.88897 22.1356C5.96413 22.1361 6.00401 22.1402 6.07771 22.1549C6.14771 22.1689 6.25177 22.2056 6.45988 22.279C7.0082 22.4726 7.59671 22.5776 8.20918 22.5776Z" stroke="black" stroke-width="2" stroke-linecap="round" stroke-linejoin="round"/>
</svg>
