<svg width="15" height="18" viewBox="0 0 15 18" fill="none" xmlns="http://www.w3.org/2000/svg">
<path d="M3.52976 17.1431C4.37206 17.1431 5.06152 16.9325 5.59814 16.5114C6.13477 16.0902 6.54573 15.4721 6.83102 14.657C7.06197 13.9777 7.28274 13.5022 7.49331 13.2305C7.70389 12.9588 8.18957 12.5241 8.95035 11.9263C9.79265 11.247 10.4583 10.4794 10.9474 9.62356C11.4365 8.76768 11.681 7.74198 11.681 6.54646C11.681 4.92979 11.1342 3.57465 10.0406 2.48102C8.94695 1.38739 7.59181 0.840577 5.97514 0.840577C4.35847 0.840577 3.00333 1.38739 1.9097 2.48102C0.81607 3.57465 0.269257 4.92979 0.269257 6.54646H1.89951C1.89951 5.3917 2.29009 4.42374 3.07125 3.64257C3.85241 2.86141 4.82038 2.47083 5.97514 2.47083C7.1299 2.47083 8.09786 2.86141 8.87903 3.64257C9.66019 4.42374 10.0508 5.3917 10.0508 6.54646C10.0508 7.47027 9.86737 8.25822 9.50056 8.91033C9.13375 9.56243 8.61071 10.1466 7.93144 10.6628C7.225 11.1791 6.67479 11.6818 6.28081 12.1708C5.88683 12.6599 5.59475 13.1897 5.40455 13.7603C5.21435 14.3581 4.9868 14.7996 4.72188 15.0849C4.45697 15.3702 4.05959 15.5128 3.52976 15.5128C3.08144 15.5128 2.69765 15.3532 2.3784 15.034C2.05914 14.7147 1.89951 14.3309 1.89951 13.8826H0.269257C0.269257 14.7792 0.588514 15.5468 1.22703 16.1853C1.86555 16.8238 2.63312 17.1431 3.52976 17.1431ZM12.3331 12.8637C13.1347 12.0486 13.7698 11.101 14.2385 10.0209C14.7072 8.94089 14.9415 7.78273 14.9415 6.54646C14.9415 5.2966 14.7072 4.12825 14.2385 3.04142C13.7698 1.95458 13.1347 1.0036 12.3331 0.188477L11.1512 1.32965C11.8305 2.00892 12.3603 2.79348 12.7407 3.68333C13.1211 4.57318 13.3113 5.52755 13.3113 6.54646C13.3113 7.55178 13.1211 8.49597 12.7407 9.37902C12.3603 10.2621 11.8305 11.0432 11.1512 11.7225L12.3331 12.8637ZM5.97514 8.58428C6.54573 8.58428 7.02801 8.38389 7.42199 7.98312C7.81597 7.58235 8.01295 7.10346 8.01295 6.54646C8.01295 5.97587 7.81597 5.49359 7.42199 5.09961C7.02801 4.70563 6.54573 4.50864 5.97514 4.50864C5.40455 4.50864 4.92227 4.70563 4.52829 5.09961C4.13431 5.49359 3.93732 5.97587 3.93732 6.54646C3.93732 7.10346 4.13431 7.58235 4.52829 7.98312C4.92227 8.38389 5.40455 8.58428 5.97514 8.58428Z" fill="#FF1D0E"/>
</svg>
