<svg width="13" height="17" viewBox="0 0 13 17" fill="none" xmlns="http://www.w3.org/2000/svg">
<path d="M6.60539 16.4873C5.01589 16.4873 3.66754 15.9337 2.56033 14.8265C1.45311 13.7193 0.899506 12.3709 0.899506 10.7814C0.899506 9.5044 1.2765 8.35982 2.03049 7.34771C2.78448 6.33559 3.77283 5.65293 4.99551 5.2997C4.54719 5.19102 4.15661 4.99743 3.82377 4.71893C3.49093 4.44042 3.22262 4.10419 3.01883 3.71021C2.81505 3.31623 2.6724 2.88829 2.59089 2.42638C2.50938 1.96448 2.49579 1.49578 2.55014 1.02029C3.10714 0.952365 3.63697 0.986328 4.13963 1.12218C4.64229 1.25804 5.0974 1.4754 5.50497 1.77428C5.91253 2.07316 6.24877 2.43318 6.51369 2.85433C6.7786 3.27547 6.93823 3.75096 6.99257 4.2808C7.16918 3.85965 7.38315 3.46227 7.63448 3.08867C7.88582 2.71507 8.16771 2.37204 8.48018 2.05958C8.62962 1.91014 8.81981 1.83542 9.05077 1.83542C9.28172 1.83542 9.47192 1.91014 9.62136 2.05958C9.77079 2.20902 9.84551 2.39921 9.84551 2.63017C9.84551 2.86112 9.77079 3.05131 9.62136 3.20075C9.32248 3.49963 9.05756 3.82908 8.82661 4.18909C8.59565 4.54911 8.42584 4.9329 8.31715 5.34046C9.51267 5.72085 10.4772 6.41031 11.2109 7.40884C11.9445 8.40737 12.3113 9.53157 12.3113 10.7814C12.3113 12.3709 11.7577 13.7193 10.6505 14.8265C9.54324 15.9337 8.19488 16.4873 6.60539 16.4873Z" fill="#01E1C3"/>
</svg>
