<svg width="15" height="15" viewBox="0 0 15 15" fill="none" xmlns="http://www.w3.org/2000/svg">
<path d="M6.99405 14.4627C6.54573 14.4627 6.09401 14.4118 5.6389 14.3099C5.18379 14.208 4.71849 14.062 4.243 13.8718C4.40602 12.2279 4.88151 10.6928 5.66947 9.26631C6.45742 7.83984 7.46954 6.58319 8.70581 5.49635C7.21141 6.25714 5.9174 7.26246 4.82377 8.51232C3.73015 9.76218 2.96597 11.1887 2.53123 12.7917C2.47689 12.751 2.42594 12.7068 2.3784 12.6593L2.22556 12.5064C1.58704 11.8679 1.10136 11.1547 0.768521 10.3667C0.435678 9.57878 0.269257 8.75686 0.269257 7.90098C0.269257 6.97717 0.45266 6.09411 0.819467 5.25182C1.18627 4.40952 1.69573 3.66232 2.34783 3.01022C3.44825 1.9098 4.87472 1.19317 6.62724 0.860325C8.37976 0.527482 10.8387 0.496915 14.0041 0.768624C14.2487 4.01554 14.2079 6.49149 13.8819 8.19646C13.5558 9.90143 12.8494 11.2973 11.7625 12.3842C11.0968 13.0499 10.353 13.5627 9.53113 13.9227C8.70921 14.2827 7.86351 14.4627 6.99405 14.4627Z" fill="#ACFD30"/>
</svg>
