<svg width="19" height="17" viewBox="0 0 19 17" fill="none" xmlns="http://www.w3.org/2000/svg">
<path d="M0.454132 16.9161L4.52976 5.50437L11.8659 12.8405L0.454132 16.9161ZM10.684 9.2132L9.82808 8.35732L14.3928 3.79261C14.8275 3.35788 15.3506 3.14051 15.9619 3.14051C16.5732 3.14051 17.0963 3.35788 17.531 3.79261L18.0201 4.28168L17.1642 5.13757L16.6751 4.64849C16.4849 4.4583 16.2472 4.3632 15.9619 4.3632C15.6766 4.3632 15.4389 4.4583 15.2487 4.64849L10.684 9.2132ZM7.42346 5.95269L6.56758 5.09681L7.05665 4.60774C7.24685 4.41754 7.34195 4.18659 7.34195 3.91488C7.34195 3.64317 7.24685 3.41222 7.05665 3.22202L6.52682 2.69219L7.3827 1.83631L7.91254 2.36614C8.34727 2.80087 8.56464 3.31712 8.56464 3.91488C8.56464 4.51264 8.34727 5.02888 7.91254 5.46362L7.42346 5.95269ZM9.05371 7.58295L8.19783 6.72706L11.1323 3.79261C11.3225 3.60241 11.4176 3.36467 11.4176 3.07937C11.4176 2.79408 11.3225 2.55633 11.1323 2.36614L9.82808 1.06194L10.684 0.206055L11.9882 1.51026C12.4229 1.94499 12.6403 2.46803 12.6403 3.07937C12.6403 3.69072 12.4229 4.21376 11.9882 4.64849L9.05371 7.58295ZM12.3142 10.8434L11.4583 9.98757L12.7625 8.68337C13.1973 8.24863 13.7203 8.03127 14.3317 8.03127C14.943 8.03127 15.466 8.24863 15.9008 8.68337L17.205 9.98757L16.3491 10.8434L15.0449 9.53925C14.8547 9.34905 14.6169 9.25395 14.3317 9.25395C14.0464 9.25395 13.8086 9.34905 13.6184 9.53925L12.3142 10.8434Z" fill="#FF7A3C"/>
</svg>
