<svg width="15" height="15" viewBox="0 0 15 15" fill="none" xmlns="http://www.w3.org/2000/svg">
<path d="M11.4365 10.2073L13.5966 8.02687C14.0313 7.59214 14.3641 7.09627 14.5951 6.53927C14.826 5.98226 14.9415 5.39809 14.9415 4.78674C14.9415 3.50971 14.4966 2.42628 13.6068 1.53643C12.7169 0.646583 11.6335 0.20166 10.3564 0.20166C9.7451 0.20166 9.16092 0.317136 8.60392 0.548089C8.04692 0.779041 7.55105 1.11188 7.11632 1.54662L4.93585 3.7067L11.4365 10.2073ZM4.85434 14.8739C5.46569 14.8739 6.04986 14.7585 6.60686 14.5275C7.16386 14.2965 7.65973 13.9637 8.09447 13.529L10.2749 11.3689L3.7743 4.86826L1.61421 7.04872C1.17948 7.48345 0.846638 7.97932 0.615685 8.53632C0.384733 9.09333 0.269257 9.6775 0.269257 10.2888C0.269257 11.5659 0.71418 12.6493 1.60403 13.5392C2.49387 14.429 3.57731 14.8739 4.85434 14.8739Z" fill="#7AE3FF"/>
</svg>
