<svg width="25" height="25" viewBox="0 0 25 25" fill="none" xmlns="http://www.w3.org/2000/svg">
<path d="M11.7265 5.57764H12.1609C15.2081 5.57764 16.7317 5.57764 17.3101 6.12493C17.8101 6.598 18.0316 7.29492 17.8966 7.96985C17.7405 8.75065 16.4966 9.63049 14.0088 11.3902L9.94419 14.2651C7.45638 16.0248 6.21246 16.9046 6.05631 17.6854C5.92133 18.3604 6.14289 19.0573 6.64283 19.5303C7.22121 20.0776 8.74483 20.0776 11.7921 20.0776H12.7265M8.22647 5.57764C8.22647 7.23449 6.88333 8.57764 5.22647 8.57764C3.56962 8.57764 2.22647 7.23449 2.22647 5.57764C2.22647 3.92078 3.56962 2.57764 5.22647 2.57764C6.88333 2.57764 8.22647 3.92078 8.22647 5.57764ZM22.2265 19.5776C22.2265 21.2345 20.8833 22.5776 19.2265 22.5776C17.5696 22.5776 16.2265 21.2345 16.2265 19.5776C16.2265 17.9208 17.5696 16.5776 19.2265 16.5776C20.8833 16.5776 22.2265 17.9208 22.2265 19.5776Z" stroke="white" stroke-width="2" stroke-linecap="round" stroke-linejoin="round"/>
</svg>
