<svg width="17" height="17" viewBox="0 0 17 17" fill="none" xmlns="http://www.w3.org/2000/svg">
<path d="M11.4583 7.56318C11.798 7.56318 12.0867 7.44431 12.3244 7.20657C12.5622 6.96882 12.681 6.68013 12.681 6.3405C12.681 6.00086 12.5622 5.71217 12.3244 5.47442C12.0867 5.23668 11.798 5.11781 11.4583 5.11781C11.1187 5.11781 10.83 5.23668 10.5923 5.47442C10.3545 5.71217 10.2356 6.00086 10.2356 6.3405C10.2356 6.68013 10.3545 6.96882 10.5923 7.20657C10.83 7.44431 11.1187 7.56318 11.4583 7.56318ZM5.75245 7.56318C6.09209 7.56318 6.38078 7.44431 6.61852 7.20657C6.85627 6.96882 6.97514 6.68013 6.97514 6.3405C6.97514 6.00086 6.85627 5.71217 6.61852 5.47442C6.38078 5.23668 6.09209 5.11781 5.75245 5.11781C5.41282 5.11781 5.12413 5.23668 4.88638 5.47442C4.64863 5.71217 4.52976 6.00086 4.52976 6.3405C4.52976 6.68013 4.64863 6.96882 4.88638 7.20657C5.12413 7.44431 5.41282 7.56318 5.75245 7.56318ZM8.60539 12.8615C9.5292 12.8615 10.3681 12.6 11.1221 12.0769C11.8761 11.5539 12.4229 10.8644 12.7625 10.0086H4.44825C4.78789 10.8644 5.3347 11.5539 6.08869 12.0769C6.84268 12.6 7.68158 12.8615 8.60539 12.8615ZM8.60539 16.5296C7.4778 16.5296 6.41814 16.3156 5.4264 15.8877C4.43466 15.4597 3.57199 14.8789 2.83838 14.1453C2.10476 13.4117 1.52398 12.549 1.09604 11.5573C0.668103 10.5656 0.454132 9.5059 0.454132 8.37831C0.454132 7.25072 0.668103 6.19106 1.09604 5.19932C1.52398 4.20758 2.10476 3.34491 2.83838 2.61129C3.57199 1.87768 4.43466 1.2969 5.4264 0.868963C6.41814 0.441021 7.4778 0.227051 8.60539 0.227051C9.73298 0.227051 10.7926 0.441021 11.7844 0.868963C12.7761 1.2969 13.6388 1.87768 14.3724 2.61129C15.106 3.34491 15.6868 4.20758 16.1147 5.19932C16.5427 6.19106 16.7567 7.25072 16.7567 8.37831C16.7567 9.5059 16.5427 10.5656 16.1147 11.5573C15.6868 12.549 15.106 13.4117 14.3724 14.1453C13.6388 14.8789 12.7761 15.4597 11.7844 15.8877C10.7926 16.3156 9.73298 16.5296 8.60539 16.5296Z" fill="#FF731D"/>
</svg>
