<svg width="195" height="213" viewBox="0 0 195 213" fill="none" xmlns="http://www.w3.org/2000/svg">
<g filter="url(#filter0_f_459_1526)">
<path d="M75.0684 11.3779C73.7748 9.69815 73.2066 8.18906 72.825 6.5367C72.7518 5.86323 72.7962 5.34248 73.2623 4.98357C74.8469 3.76326 77.2591 4.5818 79.1164 6.80063C81.2332 9.54937 81.6193 12.1716 80.1523 13.5446C78.965 14.7023 77.0433 13.7495 75.0684 11.3779Z" fill="white"/>
</g>
<path d="M76.1294 31.6386C75.5508 31.6368 74.7212 30.9344 74.651 30.0938C74.3996 29.3927 74.5455 28.8326 75.5215 28.9756C76.1001 28.9774 76.5328 29.5394 76.5679 29.9598C76.8543 31.0812 76.8891 31.5009 76.1294 31.6386Z" fill="white"/>
<g filter="url(#filter1_f_459_1526)">
<path d="M73.5337 79.0761C72.9551 79.0743 72.1255 78.3719 72.0553 77.5313C71.8039 76.8302 71.9498 76.2701 72.9258 76.4131C73.5043 76.4149 73.9371 76.9769 73.9722 77.3973C74.2586 78.5187 74.2934 78.9384 73.5337 79.0761Z" fill="white"/>
</g>
<g filter="url(#filter2_f_459_1526)">
<path d="M84.7968 98.2257C84.1092 98.457 83.4051 98.105 83.6602 97.3121C83.6436 96.7284 84.0429 96.1225 85.1464 95.8691C85.834 95.6377 86.1225 96.0125 85.9949 96.4089C85.884 97.389 85.7562 97.7851 84.7968 98.2257Z" fill="white"/>
</g>
<g filter="url(#filter3_f_459_1526)">
<path d="M102.356 109.946C101.849 110.038 101.236 109.616 101.31 108.963C101.203 108.449 101.421 107.982 102.253 107.938C102.759 107.846 103.047 108.221 103.01 108.548C103.081 109.388 103.043 109.715 102.356 109.946Z" fill="white"/>
</g>
<g filter="url(#filter4_f_459_1526)">
<path d="M86.0463 103.518C85.4678 103.517 84.6381 102.814 84.568 101.974C84.3166 101.273 84.4625 100.712 85.4385 100.856C86.017 100.857 86.4498 101.419 86.4849 101.84C86.7713 102.961 86.8061 103.381 86.0463 103.518Z" fill="white"/>
</g>
<g filter="url(#filter5_f_459_1526)">
<path d="M98.8028 116.413C98.0431 116.551 97.1228 115.919 97.2338 114.938C97.073 114.168 97.4001 113.468 98.6478 113.402C99.4075 113.264 99.8403 113.826 99.7848 114.316C99.8901 115.577 99.8342 116.067 98.8028 116.413Z" fill="white"/>
</g>
<g filter="url(#filter6_f_459_1526)">
<path d="M118.029 115.546C117.522 115.638 116.909 115.217 116.983 114.563C116.876 114.049 117.094 113.583 117.925 113.539C118.432 113.447 118.72 113.822 118.683 114.148C118.754 114.989 118.716 115.315 118.029 115.546Z" fill="white"/>
</g>
<g filter="url(#filter7_f_459_1526)">
<path d="M158.91 168.63C158.403 168.721 157.79 168.3 157.864 167.646C157.756 167.132 157.974 166.666 158.806 166.622C159.313 166.53 159.601 166.905 159.564 167.231C159.634 168.072 159.597 168.398 158.91 168.63Z" fill="white"/>
</g>
<g filter="url(#filter8_f_459_1526)">
<path d="M166.094 151.737C165.588 151.829 164.974 151.407 165.048 150.754C164.941 150.24 165.159 149.773 165.991 149.729C166.497 149.637 166.786 150.012 166.749 150.339C166.819 151.179 166.782 151.506 166.094 151.737Z" fill="white"/>
</g>
<g filter="url(#filter9_f_459_1526)">
<path d="M118.904 152.739C118.397 152.831 117.784 152.409 117.858 151.756C117.751 151.242 117.969 150.775 118.8 150.731C119.307 150.639 119.595 151.014 119.558 151.341C119.629 152.181 119.591 152.508 118.904 152.739Z" fill="white"/>
</g>
<g filter="url(#filter10_f_459_1526)">
<path d="M141.788 190.65C141.282 190.742 140.668 190.32 140.742 189.667C140.635 189.153 140.853 188.686 141.685 188.642C142.192 188.55 142.48 188.925 142.443 189.252C142.513 190.092 142.476 190.419 141.788 190.65Z" fill="white"/>
</g>
<g filter="url(#filter11_f_459_1526)">
<path d="M148.974 173.756C148.468 173.848 147.854 173.427 147.928 172.773C147.821 172.259 148.039 171.793 148.871 171.749C149.377 171.657 149.666 172.032 149.629 172.358C149.699 173.199 149.662 173.525 148.974 173.756Z" fill="white"/>
</g>
<g filter="url(#filter12_f_459_1526)">
<path d="M101.783 174.758C101.276 174.85 100.663 174.428 100.737 173.775C100.629 173.261 100.847 172.795 101.679 172.751C102.186 172.659 102.474 173.033 102.437 173.36C102.507 174.201 102.47 174.527 101.783 174.758Z" fill="white"/>
</g>
<g filter="url(#filter13_f_459_1526)">
<path d="M159.183 160.79C158.605 160.788 157.775 160.086 157.705 159.245C157.453 158.544 157.599 157.984 158.575 158.127C159.154 158.129 159.587 158.691 159.622 159.111C159.908 160.233 159.943 160.652 159.183 160.79Z" fill="white" fill-opacity="0.5"/>
</g>
<g filter="url(#filter14_f_459_1526)">
<path d="M166.368 143.897C165.789 143.896 164.959 143.193 164.889 142.353C164.638 141.651 164.784 141.091 165.76 141.234C166.338 141.236 166.771 141.798 166.806 142.219C167.093 143.34 167.127 143.76 166.368 143.897Z" fill="white" fill-opacity="0.5"/>
</g>
<g filter="url(#filter15_f_459_1526)">
<path d="M119.177 144.899C118.599 144.898 117.769 144.195 117.699 143.355C117.447 142.653 117.593 142.093 118.569 142.236C119.148 142.238 119.581 142.8 119.616 143.22C119.902 144.342 119.937 144.762 119.177 144.899Z" fill="white" fill-opacity="0.5"/>
</g>
<g filter="url(#filter16_f_459_1526)">
<path d="M111.163 96.7968C110.584 96.795 109.754 96.0926 109.684 95.252C109.433 94.5509 109.579 93.9908 110.555 94.1338C111.133 94.1356 111.566 94.6976 111.601 95.118C111.888 96.2394 111.922 96.6591 111.163 96.7968Z" fill="white" fill-opacity="0.5"/>
</g>
<g filter="url(#filter17_f_459_1526)">
<path d="M40.5493 80.496C39.9707 80.4943 39.1411 79.7918 39.0709 78.9512C38.8196 78.2501 38.9655 77.69 39.9414 77.8331C40.52 77.8348 40.9527 78.3969 40.9878 78.8172C41.2743 79.9386 41.309 80.3583 40.5493 80.496Z" fill="white" fill-opacity="0.5"/>
</g>
<g filter="url(#filter18_f_459_1526)">
<path d="M49.228 117.989C48.6494 117.987 47.8198 117.285 47.7496 116.444C47.4983 115.743 47.6442 115.183 48.6201 115.326C49.1987 115.328 49.6314 115.89 49.6665 116.31C49.953 117.432 49.9877 117.851 49.228 117.989Z" fill="white" fill-opacity="0.5"/>
</g>
<g filter="url(#filter19_f_459_1526)">
<path d="M94.3149 61.8095C93.7363 61.8077 92.9067 61.1053 92.8365 60.2647C92.5852 59.5636 92.7311 59.0035 93.707 59.1465C94.2856 59.1483 94.7184 59.7103 94.7535 60.1307C95.0399 61.2521 95.0746 61.6718 94.3149 61.8095Z" fill="white" fill-opacity="0.5"/>
</g>
<g filter="url(#filter20_f_459_1526)">
<path d="M108.958 80.8242C108.38 80.8224 107.55 80.12 107.48 79.2794C107.229 78.5783 107.375 78.0181 108.351 78.1612C108.929 78.163 109.362 78.725 109.397 79.1453C109.683 80.2667 109.718 80.6864 108.958 80.8242Z" fill="white" fill-opacity="0.5"/>
</g>
<g filter="url(#filter21_f_459_1526)">
<path d="M38.3452 64.5234C37.7666 64.5216 36.937 63.8192 36.8668 62.9786C36.6155 62.2775 36.7614 61.7173 37.7373 61.8604C38.3159 61.8622 38.7486 62.4242 38.7837 62.8445C39.0702 63.9659 39.1049 64.3857 38.3452 64.5234Z" fill="white" fill-opacity="0.5"/>
</g>
<g filter="url(#filter22_f_459_1526)">
<path d="M47.0239 102.016C46.4453 102.014 45.6157 101.311 45.5455 100.471C45.2942 99.7697 45.4401 99.2095 46.416 99.3526C46.9946 99.3544 47.4273 99.9164 47.4624 100.337C47.7489 101.458 47.7836 101.878 47.0239 102.016Z" fill="white" fill-opacity="0.5"/>
</g>
<g filter="url(#filter23_f_459_1526)">
<path d="M81.0288 70.7792C80.4502 70.7775 79.6206 70.075 79.5504 69.2344C79.299 68.5333 79.445 67.9732 80.4209 68.1163C80.9995 68.118 81.4322 68.6801 81.4673 69.1004C81.7538 70.2218 81.7885 70.6415 81.0288 70.7792Z" fill="white" fill-opacity="0.5"/>
</g>
<g filter="url(#filter24_f_459_1526)">
<path d="M66.9223 31.1562C66.3438 31.1544 65.5141 30.452 65.4439 29.6114C65.1926 28.9103 65.3385 28.3501 66.3145 28.4932C66.893 28.495 67.3258 29.057 67.3609 29.4773C67.6473 30.5987 67.682 31.0185 66.9223 31.1562Z" fill="white" fill-opacity="0.5"/>
</g>
<g filter="url(#filter25_f_459_1526)">
<path d="M146.287 166.991C145.781 167.083 145.167 166.661 145.241 166.007C145.134 165.494 145.352 165.027 146.184 164.983C146.691 164.891 146.979 165.266 146.942 165.593C147.012 166.433 146.975 166.76 146.287 166.991Z" fill="white" fill-opacity="0.5"/>
</g>
<g filter="url(#filter26_f_459_1526)">
<path d="M153.472 150.097C152.966 150.189 152.352 149.767 152.426 149.114C152.319 148.6 152.537 148.134 153.369 148.089C153.875 147.998 154.164 148.372 154.127 148.699C154.197 149.54 154.16 149.866 153.472 150.097Z" fill="white" fill-opacity="0.5"/>
</g>
<g filter="url(#filter27_f_459_1526)">
<path d="M106.282 151.099C105.775 151.191 105.162 150.769 105.236 150.116C105.128 149.602 105.347 149.136 106.178 149.091C106.685 149 106.973 149.374 106.936 149.701C107.006 150.542 106.969 150.868 106.282 151.099Z" fill="white" fill-opacity="0.5"/>
</g>
<g filter="url(#filter28_f_459_1526)">
<path d="M138.355 156.691C137.848 156.783 137.235 156.361 137.309 155.708C137.202 155.194 137.42 154.727 138.252 154.683C138.758 154.591 139.046 154.966 139.01 155.293C139.08 156.133 139.042 156.46 138.355 156.691Z" fill="white" fill-opacity="0.5"/>
</g>
<g filter="url(#filter29_f_459_1526)">
<path d="M86.1009 42.9479C85.5945 43.0397 84.981 42.6179 85.0549 41.9645C84.9478 41.4506 85.1658 40.9842 85.9976 40.94C86.5041 40.8482 86.7926 41.2229 86.7556 41.5496C86.8258 42.3902 86.7886 42.7165 86.1009 42.9479Z" fill="white" fill-opacity="0.5"/>
</g>
<g filter="url(#filter30_f_459_1526)">
<path d="M145.54 139.797C145.034 139.889 144.42 139.468 144.494 138.814C144.387 138.3 144.605 137.834 145.437 137.79C145.944 137.698 146.232 138.073 146.195 138.399C146.265 139.24 146.228 139.566 145.54 139.797Z" fill="white" fill-opacity="0.5"/>
</g>
<g filter="url(#filter31_f_459_1526)">
<path d="M135.651 117.122C135.144 117.214 134.531 116.792 134.605 116.138C134.498 115.624 134.716 115.158 135.547 115.114C136.054 115.022 136.342 115.397 136.305 115.723C136.376 116.564 136.338 116.89 135.651 117.122Z" fill="white" fill-opacity="0.5"/>
</g>
<g filter="url(#filter32_f_459_1526)">
<path d="M118.803 82.1344C118.297 82.2262 117.683 81.8045 117.757 81.151C117.65 80.6371 117.868 80.1707 118.7 80.1265C119.206 80.0347 119.495 80.4094 119.458 80.7361C119.528 81.5768 119.491 81.9031 118.803 82.1344Z" fill="white" fill-opacity="0.5"/>
</g>
<g filter="url(#filter33_f_459_1526)">
<path d="M48.1898 65.8336C47.6833 65.9254 47.0698 65.5037 47.1438 64.8503C47.0366 64.3364 47.2547 63.8699 48.0865 63.8258C48.593 63.7339 48.8815 64.1087 48.8445 64.4354C48.9147 65.276 48.8774 65.6023 48.1898 65.8336Z" fill="white" fill-opacity="0.5"/>
</g>
<g filter="url(#filter34_f_459_1526)">
<path d="M56.8685 103.326C56.362 103.418 55.7485 102.996 55.8225 102.342C55.7153 101.829 55.9334 101.362 56.7652 101.318C57.2717 101.226 57.5602 101.601 57.5232 101.928C57.5934 102.768 57.5561 103.094 56.8685 103.326Z" fill="white" fill-opacity="0.5"/>
</g>
<g filter="url(#filter35_f_459_1526)">
<path d="M90.8724 72.0895C90.366 72.1813 89.7525 71.7595 89.8264 71.1061C89.7193 70.5922 89.9373 70.1258 90.7691 70.0816C91.2756 69.9898 91.5641 70.3645 91.5271 70.6912C91.5973 71.5318 91.5601 71.8581 90.8724 72.0895Z" fill="white" fill-opacity="0.5"/>
</g>
<g filter="url(#filter36_f_459_1526)">
<path d="M93.2855 26.0553C92.779 26.1471 92.1655 25.7254 92.2395 25.0719C92.1323 24.558 92.3504 24.0916 93.1822 24.0474C93.6887 23.9556 93.9772 24.3303 93.9402 24.657C94.0104 25.4977 93.9731 25.824 93.2855 26.0553Z" fill="white" fill-opacity="0.5"/>
</g>
<g filter="url(#filter37_f_459_1526)">
<path d="M98.349 140.799C97.8425 140.891 97.229 140.469 97.303 139.816C97.1958 139.302 97.4139 138.836 98.2457 138.792C98.7521 138.7 99.0406 139.074 99.0037 139.401C99.0738 140.242 99.0366 140.568 98.349 140.799Z" fill="white" fill-opacity="0.5"/>
</g>
<g filter="url(#filter38_f_459_1526)">
<path d="M124.422 99.2643C123.916 99.3561 123.302 98.9343 123.376 98.2809C123.269 97.767 123.487 97.3006 124.319 97.2564C124.825 97.1646 125.114 97.5393 125.077 97.866C125.147 98.7066 125.11 99.0329 124.422 99.2643Z" fill="white" fill-opacity="0.5"/>
</g>
<g filter="url(#filter39_f_459_1526)">
<path d="M107.575 64.276C107.068 64.3678 106.455 63.9461 106.529 63.2926C106.421 62.7787 106.639 62.3123 107.471 62.2682C107.978 62.1763 108.266 62.551 108.229 62.8777C108.299 63.7184 108.262 64.0447 107.575 64.276Z" fill="white" fill-opacity="0.5"/>
</g>
<g filter="url(#filter40_f_459_1526)">
<path d="M45.639 85.4674C45.1326 85.5592 44.5191 85.1375 44.593 84.484C44.4859 83.9701 44.7039 83.5037 45.5357 83.4596C46.0422 83.3677 46.3307 83.7424 46.2937 84.0691C46.3639 84.9098 46.3267 85.2361 45.639 85.4674Z" fill="white" fill-opacity="0.5"/>
</g>
<g filter="url(#filter41_f_459_1526)">
<path d="M124.149 156.272C123.642 156.364 123.029 155.942 123.103 155.289C122.996 154.775 123.214 154.308 124.045 154.264C124.552 154.172 124.84 154.547 124.803 154.874C124.874 155.714 124.836 156.041 124.149 156.272Z" fill="white" fill-opacity="0.5"/>
</g>
<g filter="url(#filter42_f_459_1526)">
<path d="M71.8939 42.5289C71.3874 42.6207 70.7739 42.199 70.8479 41.5456C70.7407 41.0317 70.9588 40.5652 71.7906 40.5211C72.2971 40.4293 72.5856 40.804 72.5486 41.1307C72.6188 41.9713 72.5815 42.2976 71.8939 42.5289Z" fill="white" fill-opacity="0.5"/>
</g>
<g filter="url(#filter43_f_459_1526)">
<path d="M131.334 139.379C130.828 139.47 130.214 139.049 130.288 138.395C130.181 137.881 130.399 137.415 131.231 137.371C131.737 137.279 132.026 137.654 131.989 137.98C132.059 138.821 132.022 139.147 131.334 139.379Z" fill="white" fill-opacity="0.5"/>
</g>
<g filter="url(#filter44_f_459_1526)">
<path d="M145.886 104.191C145.38 104.283 144.766 103.861 144.84 103.208C144.733 102.694 144.951 102.227 145.783 102.183C146.289 102.091 146.578 102.466 146.541 102.793C146.611 103.633 146.574 103.96 145.886 104.191Z" fill="white" fill-opacity="0.5"/>
</g>
<g filter="url(#filter45_f_459_1526)">
<path d="M129.038 69.2027C128.532 69.2946 127.918 68.8728 127.992 68.2194C127.885 67.7055 128.103 67.239 128.935 67.1949C129.442 67.1031 129.73 67.4778 129.693 67.8045C129.763 68.6451 129.726 68.9714 129.038 69.2027Z" fill="white" fill-opacity="0.5"/>
</g>
<g filter="url(#filter46_f_459_1526)">
<path d="M58.4252 52.902C57.9187 52.9938 57.3052 52.572 57.3792 51.9186C57.272 51.4047 57.4901 50.9383 58.3218 50.8941C58.8283 50.8023 59.1168 51.177 59.0798 51.5037C59.15 52.3443 59.1128 52.6706 58.4252 52.902Z" fill="white" fill-opacity="0.5"/>
</g>
<g filter="url(#filter47_f_459_1526)">
<path d="M67.1039 90.3942C66.5974 90.486 65.9839 90.0642 66.0579 89.4108C65.9507 88.8969 66.1688 88.4304 67.0006 88.3863C67.507 88.2945 67.7955 88.6692 67.7585 88.9959C67.8287 89.8365 67.7915 90.1628 67.1039 90.3942Z" fill="white" fill-opacity="0.5"/>
</g>
<g filter="url(#filter48_f_459_1526)">
<path d="M79.0795 25.6363C78.573 25.7282 77.9595 25.3064 78.0335 24.653C77.9263 24.1391 78.1444 23.6726 78.9761 23.6285C79.4826 23.5367 79.7711 23.9114 79.7341 24.2381C79.8043 25.0787 79.7671 25.405 79.0795 25.6363Z" fill="white" fill-opacity="0.5"/>
</g>
<g filter="url(#filter49_f_459_1526)">
<path d="M84.1429 140.38C83.6365 140.472 83.023 140.051 83.0969 139.397C82.9898 138.883 83.2078 138.417 84.0396 138.373C84.5461 138.281 84.8346 138.656 84.7976 138.982C84.8678 139.823 84.8306 140.149 84.1429 140.38Z" fill="white" fill-opacity="0.5"/>
</g>
<g filter="url(#filter50_f_459_1526)">
<path d="M119.623 179.896C119.045 179.895 118.215 179.192 118.145 178.352C117.894 177.651 118.04 177.09 119.016 177.233C119.594 177.235 120.027 177.797 120.062 178.218C120.348 179.339 120.383 179.759 119.623 179.896Z" fill="white" fill-opacity="0.5"/>
</g>
<g filter="url(#filter51_f_459_1526)">
<path d="M126.808 163.003C126.23 163.001 125.4 162.299 125.33 161.458C125.078 160.757 125.224 160.197 126.2 160.34C126.779 160.342 127.212 160.904 127.247 161.324C127.533 162.445 127.568 162.865 126.808 163.003Z" fill="white" fill-opacity="0.5"/>
</g>
<g filter="url(#filter52_f_459_1526)">
<path d="M74.5532 49.2607C73.9746 49.2589 73.145 48.5565 73.0748 47.7159C72.8235 47.0148 72.9694 46.4546 73.9453 46.5977C74.5239 46.5995 74.9566 47.1615 74.9917 47.5818C75.2782 48.7032 75.3129 49.123 74.5532 49.2607Z" fill="white" fill-opacity="0.5"/>
</g>
<g filter="url(#filter53_f_459_1526)">
<path d="M79.6167 164.005C79.0381 164.003 78.2085 163.301 78.1383 162.46C77.8869 161.759 78.0328 161.199 79.0088 161.342C79.5874 161.344 80.0201 161.906 80.0552 162.326C80.3416 163.447 80.3764 163.867 79.6167 164.005Z" fill="white" fill-opacity="0.5"/>
</g>
<g filter="url(#filter54_f_459_1526)">
<path d="M132.161 189.23C131.473 189.461 130.769 189.109 131.024 188.316C131.008 187.732 131.407 187.126 132.511 186.873C133.198 186.642 133.487 187.016 133.359 187.413C133.248 188.393 133.12 188.789 132.161 189.23Z" fill="white" fill-opacity="0.5"/>
</g>
<g filter="url(#filter55_f_459_1526)">
<path d="M139.346 172.336C138.658 172.567 137.954 172.215 138.209 171.422C138.192 170.839 138.592 170.233 139.695 169.979C140.383 169.748 140.671 170.123 140.544 170.519C140.433 171.499 140.305 171.895 139.346 172.336Z" fill="white" fill-opacity="0.5"/>
</g>
<g filter="url(#filter56_f_459_1526)">
<path d="M92.1552 173.338C91.4676 173.569 90.7635 173.217 91.0186 172.424C91.002 171.841 91.4013 171.235 92.5048 170.981C93.1924 170.75 93.4809 171.125 93.3533 171.521C93.2424 172.501 93.1146 172.897 92.1552 173.338Z" fill="white" fill-opacity="0.5"/>
</g>
<g filter="url(#filter57_f_459_1526)">
<path d="M76.4662 150.08C75.9597 150.172 75.3462 149.75 75.4202 149.096C75.313 148.582 75.5311 148.116 76.3629 148.072C76.8693 147.98 77.1578 148.355 77.1208 148.681C77.191 149.522 77.1538 149.848 76.4662 150.08Z" fill="white"/>
</g>
<g filter="url(#filter58_f_459_1526)">
<path d="M71.0834 120.146C70.5769 120.238 69.9634 119.816 70.0374 119.163C69.9302 118.649 70.1483 118.182 70.98 118.138C71.4865 118.046 71.775 118.421 71.738 118.748C71.8082 119.588 71.771 119.915 71.0834 120.146Z" fill="white"/>
</g>
<g filter="url(#filter59_f_459_1526)">
<path d="M69.5496 71.3827C69.2085 71.0666 69.2525 70.7433 69.1739 70.5144C68.4665 68.4548 68.6158 67.761 69.8503 66.9549C70.2794 66.6245 70.5851 67.4018 71.0402 67.4855C71.4252 67.4783 71.9415 67.5148 71.8622 68.2993C71.7569 68.6698 72.1593 68.9386 72.439 69.3019C73.1298 70.0721 72.9633 70.4898 72.6128 71.0491C71.9032 72.0296 70.5735 71.3175 69.5496 71.3827Z" fill="white"/>
</g>
<g filter="url(#filter60_f_459_1526)">
<path d="M81.5525 55.828C81.2114 55.5119 81.2554 55.1886 81.1768 54.9597C80.4695 52.9001 80.6187 52.2063 81.8533 51.4002C82.2823 51.0698 82.5881 51.8471 83.0431 51.9308C83.4282 51.9236 83.9444 51.9601 83.8651 52.7446C83.7598 53.1151 84.1622 53.3839 84.442 53.7472C85.1328 54.5174 84.9662 54.9351 84.6157 55.4944C83.9061 56.475 82.5765 55.7628 81.5525 55.828Z" fill="#FF33F1"/>
</g>
<g filter="url(#filter61_f_459_1526)">
<path d="M74.4056 107.189C74.1204 106.946 74.1924 106.659 74.1418 106.466C73.6862 104.734 73.8914 104.113 75.112 103.288C75.5411 102.958 75.7489 103.608 76.162 103.637C76.5191 103.594 76.9934 103.576 76.8441 104.269C76.7108 104.604 77.0572 104.8 77.2811 105.09C77.846 105.697 77.6514 106.078 77.2729 106.601C76.5214 107.527 75.3596 107.033 74.4056 107.189Z" fill="#FA3FD8"/>
</g>
<g filter="url(#filter62_f_459_1526)">
<path d="M70.0172 139.18C69.6608 138.876 69.7507 138.517 69.6875 138.276C69.1181 136.11 69.3746 135.334 70.9003 134.304C71.4366 133.891 71.6964 134.703 72.2127 134.74C72.6591 134.685 73.252 134.663 73.0653 135.53C72.8988 135.948 73.3318 136.193 73.6116 136.556C74.3177 137.315 74.0745 137.791 73.6014 138.445C72.662 139.603 71.2097 138.985 70.0172 139.18Z" fill="white"/>
</g>
<g filter="url(#filter63_f_459_1526)">
<path d="M153.669 142.916C153.328 142.6 153.372 142.276 153.293 142.048C152.586 139.988 152.735 139.294 153.969 138.488C154.399 138.158 154.704 138.935 155.159 139.019C155.544 139.011 156.061 139.048 155.981 139.833C155.876 140.203 156.278 140.472 156.558 140.835C157.249 141.605 157.082 142.023 156.732 142.582C156.022 143.563 154.693 142.851 153.669 142.916Z" fill="#FF32F1"/>
</g>
<g filter="url(#filter64_f_459_1526)">
<path d="M131.357 150.001C131.016 149.685 131.06 149.361 130.981 149.133C130.274 147.073 130.423 146.379 131.658 145.573C132.087 145.243 132.393 146.02 132.848 146.104C133.233 146.096 133.749 146.133 133.67 146.917C133.564 147.288 133.967 147.557 134.247 147.92C134.937 148.69 134.771 149.108 134.42 149.667C133.711 150.648 132.381 149.936 131.357 150.001Z" fill="white"/>
</g>
<g filter="url(#filter65_f_459_1526)">
<path d="M104.092 129.347C103.75 129.03 103.794 128.707 103.716 128.478C103.009 126.419 103.158 125.725 104.392 124.919C104.821 124.588 105.127 125.366 105.582 125.449C105.967 125.442 106.484 125.479 106.404 126.263C106.299 126.634 106.701 126.902 106.981 127.266C107.672 128.036 107.505 128.454 107.155 129.013C106.445 129.994 105.116 129.281 104.092 129.347Z" fill="#F15DE0"/>
</g>
<g filter="url(#filter66_f_459_1526)">
<path d="M127.013 123.054C126.672 122.737 126.716 122.414 126.638 122.185C125.93 120.126 126.08 119.432 127.314 118.626C127.743 118.295 128.049 119.073 128.504 119.156C128.889 119.149 129.405 119.186 129.326 119.97C129.221 120.341 129.623 120.61 129.903 120.973C130.594 121.743 130.427 122.161 130.077 122.72C129.367 123.701 128.037 122.988 127.013 123.054Z" fill="white"/>
</g>
<g filter="url(#filter67_f_459_1526)">
<path d="M152.776 182.73C152.435 182.414 152.479 182.091 152.4 181.862C151.693 179.802 151.842 179.109 153.077 178.303C153.506 177.972 153.812 178.749 154.267 178.833C154.652 178.826 155.168 178.862 155.089 179.647C154.983 180.017 155.386 180.286 155.666 180.65C156.356 181.42 156.19 181.837 155.839 182.397C155.13 183.377 153.8 182.665 152.776 182.73Z" fill="#FF20F8"/>
</g>
<defs>
<filter id="filter0_f_459_1526" x="68.7969" y="0.416992" width="16.2344" height="17.6191" filterUnits="userSpaceOnUse" color-interpolation-filters="sRGB">
<feFlood flood-opacity="0" result="BackgroundImageFix"/>
<feBlend mode="normal" in="SourceGraphic" in2="BackgroundImageFix" result="shape"/>
<feGaussianBlur stdDeviation="2" result="effect1_foregroundBlur_459_1526"/>
</filter>
<filter id="filter1_f_459_1526" x="70.9473" y="75.3906" width="4.21289" height="4.68555" filterUnits="userSpaceOnUse" color-interpolation-filters="sRGB">
<feFlood flood-opacity="0" result="BackgroundImageFix"/>
<feBlend mode="normal" in="SourceGraphic" in2="BackgroundImageFix" result="shape"/>
<feGaussianBlur stdDeviation="0.5" result="effect1_foregroundBlur_459_1526"/>
</filter>
<filter id="filter2_f_459_1526" x="82.6064" y="94.7979" width="4.41797" height="4.49805" filterUnits="userSpaceOnUse" color-interpolation-filters="sRGB">
<feFlood flood-opacity="0" result="BackgroundImageFix"/>
<feBlend mode="normal" in="SourceGraphic" in2="BackgroundImageFix" result="shape"/>
<feGaussianBlur stdDeviation="0.5" result="effect1_foregroundBlur_459_1526"/>
</filter>
<filter id="filter3_f_459_1526" x="100.284" y="106.924" width="3.75098" height="4.03418" filterUnits="userSpaceOnUse" color-interpolation-filters="sRGB">
<feFlood flood-opacity="0" result="BackgroundImageFix"/>
<feBlend mode="normal" in="SourceGraphic" in2="BackgroundImageFix" result="shape"/>
<feGaussianBlur stdDeviation="0.5" result="effect1_foregroundBlur_459_1526"/>
</filter>
<filter id="filter4_f_459_1526" x="83.46" y="99.833" width="4.21289" height="4.68555" filterUnits="userSpaceOnUse" color-interpolation-filters="sRGB">
<feFlood flood-opacity="0" result="BackgroundImageFix"/>
<feBlend mode="normal" in="SourceGraphic" in2="BackgroundImageFix" result="shape"/>
<feGaussianBlur stdDeviation="0.5" result="effect1_foregroundBlur_459_1526"/>
</filter>
<filter id="filter5_f_459_1526" x="96.1963" y="112.381" width="4.62598" height="5.05176" filterUnits="userSpaceOnUse" color-interpolation-filters="sRGB">
<feFlood flood-opacity="0" result="BackgroundImageFix"/>
<feBlend mode="normal" in="SourceGraphic" in2="BackgroundImageFix" result="shape"/>
<feGaussianBlur stdDeviation="0.5" result="effect1_foregroundBlur_459_1526"/>
</filter>
<filter id="filter6_f_459_1526" x="115.957" y="112.524" width="3.75098" height="4.03418" filterUnits="userSpaceOnUse" color-interpolation-filters="sRGB">
<feFlood flood-opacity="0" result="BackgroundImageFix"/>
<feBlend mode="normal" in="SourceGraphic" in2="BackgroundImageFix" result="shape"/>
<feGaussianBlur stdDeviation="0.5" result="effect1_foregroundBlur_459_1526"/>
</filter>
<filter id="filter7_f_459_1526" x="156.838" y="165.607" width="3.75098" height="4.03418" filterUnits="userSpaceOnUse" color-interpolation-filters="sRGB">
<feFlood flood-opacity="0" result="BackgroundImageFix"/>
<feBlend mode="normal" in="SourceGraphic" in2="BackgroundImageFix" result="shape"/>
<feGaussianBlur stdDeviation="0.5" result="effect1_foregroundBlur_459_1526"/>
</filter>
<filter id="filter8_f_459_1526" x="164.022" y="148.715" width="3.75098" height="4.03418" filterUnits="userSpaceOnUse" color-interpolation-filters="sRGB">
<feFlood flood-opacity="0" result="BackgroundImageFix"/>
<feBlend mode="normal" in="SourceGraphic" in2="BackgroundImageFix" result="shape"/>
<feGaussianBlur stdDeviation="0.5" result="effect1_foregroundBlur_459_1526"/>
</filter>
<filter id="filter9_f_459_1526" x="116.832" y="149.717" width="3.75098" height="4.03418" filterUnits="userSpaceOnUse" color-interpolation-filters="sRGB">
<feFlood flood-opacity="0" result="BackgroundImageFix"/>
<feBlend mode="normal" in="SourceGraphic" in2="BackgroundImageFix" result="shape"/>
<feGaussianBlur stdDeviation="0.5" result="effect1_foregroundBlur_459_1526"/>
</filter>
<filter id="filter10_f_459_1526" x="139.717" y="187.628" width="3.75098" height="4.03418" filterUnits="userSpaceOnUse" color-interpolation-filters="sRGB">
<feFlood flood-opacity="0" result="BackgroundImageFix"/>
<feBlend mode="normal" in="SourceGraphic" in2="BackgroundImageFix" result="shape"/>
<feGaussianBlur stdDeviation="0.5" result="effect1_foregroundBlur_459_1526"/>
</filter>
<filter id="filter11_f_459_1526" x="146.902" y="170.734" width="3.75098" height="4.03418" filterUnits="userSpaceOnUse" color-interpolation-filters="sRGB">
<feFlood flood-opacity="0" result="BackgroundImageFix"/>
<feBlend mode="normal" in="SourceGraphic" in2="BackgroundImageFix" result="shape"/>
<feGaussianBlur stdDeviation="0.5" result="effect1_foregroundBlur_459_1526"/>
</filter>
<filter id="filter12_f_459_1526" x="99.7109" y="171.736" width="3.75098" height="4.03418" filterUnits="userSpaceOnUse" color-interpolation-filters="sRGB">
<feFlood flood-opacity="0" result="BackgroundImageFix"/>
<feBlend mode="normal" in="SourceGraphic" in2="BackgroundImageFix" result="shape"/>
<feGaussianBlur stdDeviation="0.5" result="effect1_foregroundBlur_459_1526"/>
</filter>
<filter id="filter13_f_459_1526" x="156.597" y="157.104" width="4.21289" height="4.68555" filterUnits="userSpaceOnUse" color-interpolation-filters="sRGB">
<feFlood flood-opacity="0" result="BackgroundImageFix"/>
<feBlend mode="normal" in="SourceGraphic" in2="BackgroundImageFix" result="shape"/>
<feGaussianBlur stdDeviation="0.5" result="effect1_foregroundBlur_459_1526"/>
</filter>
<filter id="filter14_f_459_1526" x="163.781" y="140.212" width="4.21289" height="4.68555" filterUnits="userSpaceOnUse" color-interpolation-filters="sRGB">
<feFlood flood-opacity="0" result="BackgroundImageFix"/>
<feBlend mode="normal" in="SourceGraphic" in2="BackgroundImageFix" result="shape"/>
<feGaussianBlur stdDeviation="0.5" result="effect1_foregroundBlur_459_1526"/>
</filter>
<filter id="filter15_f_459_1526" x="116.591" y="141.214" width="4.21289" height="4.68555" filterUnits="userSpaceOnUse" color-interpolation-filters="sRGB">
<feFlood flood-opacity="0" result="BackgroundImageFix"/>
<feBlend mode="normal" in="SourceGraphic" in2="BackgroundImageFix" result="shape"/>
<feGaussianBlur stdDeviation="0.5" result="effect1_foregroundBlur_459_1526"/>
</filter>
<filter id="filter16_f_459_1526" x="108.576" y="93.1113" width="4.21289" height="4.68555" filterUnits="userSpaceOnUse" color-interpolation-filters="sRGB">
<feFlood flood-opacity="0" result="BackgroundImageFix"/>
<feBlend mode="normal" in="SourceGraphic" in2="BackgroundImageFix" result="shape"/>
<feGaussianBlur stdDeviation="0.5" result="effect1_foregroundBlur_459_1526"/>
</filter>
<filter id="filter17_f_459_1526" x="37.9629" y="76.8105" width="4.21289" height="4.68555" filterUnits="userSpaceOnUse" color-interpolation-filters="sRGB">
<feFlood flood-opacity="0" result="BackgroundImageFix"/>
<feBlend mode="normal" in="SourceGraphic" in2="BackgroundImageFix" result="shape"/>
<feGaussianBlur stdDeviation="0.5" result="effect1_foregroundBlur_459_1526"/>
</filter>
<filter id="filter18_f_459_1526" x="46.6416" y="114.304" width="4.21289" height="4.68555" filterUnits="userSpaceOnUse" color-interpolation-filters="sRGB">
<feFlood flood-opacity="0" result="BackgroundImageFix"/>
<feBlend mode="normal" in="SourceGraphic" in2="BackgroundImageFix" result="shape"/>
<feGaussianBlur stdDeviation="0.5" result="effect1_foregroundBlur_459_1526"/>
</filter>
<filter id="filter19_f_459_1526" x="91.7285" y="58.124" width="4.21289" height="4.68555" filterUnits="userSpaceOnUse" color-interpolation-filters="sRGB">
<feFlood flood-opacity="0" result="BackgroundImageFix"/>
<feBlend mode="normal" in="SourceGraphic" in2="BackgroundImageFix" result="shape"/>
<feGaussianBlur stdDeviation="0.5" result="effect1_foregroundBlur_459_1526"/>
</filter>
<filter id="filter20_f_459_1526" x="106.372" y="77.1387" width="4.21289" height="4.68555" filterUnits="userSpaceOnUse" color-interpolation-filters="sRGB">
<feFlood flood-opacity="0" result="BackgroundImageFix"/>
<feBlend mode="normal" in="SourceGraphic" in2="BackgroundImageFix" result="shape"/>
<feGaussianBlur stdDeviation="0.5" result="effect1_foregroundBlur_459_1526"/>
</filter>
<filter id="filter21_f_459_1526" x="35.7588" y="60.8379" width="4.21289" height="4.68555" filterUnits="userSpaceOnUse" color-interpolation-filters="sRGB">
<feFlood flood-opacity="0" result="BackgroundImageFix"/>
<feBlend mode="normal" in="SourceGraphic" in2="BackgroundImageFix" result="shape"/>
<feGaussianBlur stdDeviation="0.5" result="effect1_foregroundBlur_459_1526"/>
</filter>
<filter id="filter22_f_459_1526" x="44.4375" y="98.3301" width="4.21289" height="4.68555" filterUnits="userSpaceOnUse" color-interpolation-filters="sRGB">
<feFlood flood-opacity="0" result="BackgroundImageFix"/>
<feBlend mode="normal" in="SourceGraphic" in2="BackgroundImageFix" result="shape"/>
<feGaussianBlur stdDeviation="0.5" result="effect1_foregroundBlur_459_1526"/>
</filter>
<filter id="filter23_f_459_1526" x="78.4424" y="67.0938" width="4.21289" height="4.68555" filterUnits="userSpaceOnUse" color-interpolation-filters="sRGB">
<feFlood flood-opacity="0" result="BackgroundImageFix"/>
<feBlend mode="normal" in="SourceGraphic" in2="BackgroundImageFix" result="shape"/>
<feGaussianBlur stdDeviation="0.5" result="effect1_foregroundBlur_459_1526"/>
</filter>
<filter id="filter24_f_459_1526" x="64.3359" y="27.4707" width="4.21289" height="4.68555" filterUnits="userSpaceOnUse" color-interpolation-filters="sRGB">
<feFlood flood-opacity="0" result="BackgroundImageFix"/>
<feBlend mode="normal" in="SourceGraphic" in2="BackgroundImageFix" result="shape"/>
<feGaussianBlur stdDeviation="0.5" result="effect1_foregroundBlur_459_1526"/>
</filter>
<filter id="filter25_f_459_1526" x="144.216" y="163.969" width="3.75098" height="4.03418" filterUnits="userSpaceOnUse" color-interpolation-filters="sRGB">
<feFlood flood-opacity="0" result="BackgroundImageFix"/>
<feBlend mode="normal" in="SourceGraphic" in2="BackgroundImageFix" result="shape"/>
<feGaussianBlur stdDeviation="0.5" result="effect1_foregroundBlur_459_1526"/>
</filter>
<filter id="filter26_f_459_1526" x="151.4" y="147.075" width="3.75098" height="4.03418" filterUnits="userSpaceOnUse" color-interpolation-filters="sRGB">
<feFlood flood-opacity="0" result="BackgroundImageFix"/>
<feBlend mode="normal" in="SourceGraphic" in2="BackgroundImageFix" result="shape"/>
<feGaussianBlur stdDeviation="0.5" result="effect1_foregroundBlur_459_1526"/>
</filter>
<filter id="filter27_f_459_1526" x="104.21" y="148.077" width="3.75098" height="4.03418" filterUnits="userSpaceOnUse" color-interpolation-filters="sRGB">
<feFlood flood-opacity="0" result="BackgroundImageFix"/>
<feBlend mode="normal" in="SourceGraphic" in2="BackgroundImageFix" result="shape"/>
<feGaussianBlur stdDeviation="0.5" result="effect1_foregroundBlur_459_1526"/>
</filter>
<filter id="filter28_f_459_1526" x="136.283" y="153.669" width="3.75098" height="4.03418" filterUnits="userSpaceOnUse" color-interpolation-filters="sRGB">
<feFlood flood-opacity="0" result="BackgroundImageFix"/>
<feBlend mode="normal" in="SourceGraphic" in2="BackgroundImageFix" result="shape"/>
<feGaussianBlur stdDeviation="0.5" result="effect1_foregroundBlur_459_1526"/>
</filter>
<filter id="filter29_f_459_1526" x="84.0293" y="39.9258" width="3.75098" height="4.03418" filterUnits="userSpaceOnUse" color-interpolation-filters="sRGB">
<feFlood flood-opacity="0" result="BackgroundImageFix"/>
<feBlend mode="normal" in="SourceGraphic" in2="BackgroundImageFix" result="shape"/>
<feGaussianBlur stdDeviation="0.5" result="effect1_foregroundBlur_459_1526"/>
</filter>
<filter id="filter30_f_459_1526" x="143.469" y="136.775" width="3.75098" height="4.03418" filterUnits="userSpaceOnUse" color-interpolation-filters="sRGB">
<feFlood flood-opacity="0" result="BackgroundImageFix"/>
<feBlend mode="normal" in="SourceGraphic" in2="BackgroundImageFix" result="shape"/>
<feGaussianBlur stdDeviation="0.5" result="effect1_foregroundBlur_459_1526"/>
</filter>
<filter id="filter31_f_459_1526" x="133.579" y="114.1" width="3.75098" height="4.03418" filterUnits="userSpaceOnUse" color-interpolation-filters="sRGB">
<feFlood flood-opacity="0" result="BackgroundImageFix"/>
<feBlend mode="normal" in="SourceGraphic" in2="BackgroundImageFix" result="shape"/>
<feGaussianBlur stdDeviation="0.5" result="effect1_foregroundBlur_459_1526"/>
</filter>
<filter id="filter32_f_459_1526" x="116.731" y="79.1123" width="3.75098" height="4.03418" filterUnits="userSpaceOnUse" color-interpolation-filters="sRGB">
<feFlood flood-opacity="0" result="BackgroundImageFix"/>
<feBlend mode="normal" in="SourceGraphic" in2="BackgroundImageFix" result="shape"/>
<feGaussianBlur stdDeviation="0.5" result="effect1_foregroundBlur_459_1526"/>
</filter>
<filter id="filter33_f_459_1526" x="46.1182" y="62.8115" width="3.75098" height="4.03418" filterUnits="userSpaceOnUse" color-interpolation-filters="sRGB">
<feFlood flood-opacity="0" result="BackgroundImageFix"/>
<feBlend mode="normal" in="SourceGraphic" in2="BackgroundImageFix" result="shape"/>
<feGaussianBlur stdDeviation="0.5" result="effect1_foregroundBlur_459_1526"/>
</filter>
<filter id="filter34_f_459_1526" x="54.7969" y="100.304" width="3.75098" height="4.03418" filterUnits="userSpaceOnUse" color-interpolation-filters="sRGB">
<feFlood flood-opacity="0" result="BackgroundImageFix"/>
<feBlend mode="normal" in="SourceGraphic" in2="BackgroundImageFix" result="shape"/>
<feGaussianBlur stdDeviation="0.5" result="effect1_foregroundBlur_459_1526"/>
</filter>
<filter id="filter35_f_459_1526" x="88.8008" y="69.0674" width="3.75098" height="4.03418" filterUnits="userSpaceOnUse" color-interpolation-filters="sRGB">
<feFlood flood-opacity="0" result="BackgroundImageFix"/>
<feBlend mode="normal" in="SourceGraphic" in2="BackgroundImageFix" result="shape"/>
<feGaussianBlur stdDeviation="0.5" result="effect1_foregroundBlur_459_1526"/>
</filter>
<filter id="filter36_f_459_1526" x="91.2139" y="23.0332" width="3.75098" height="4.03418" filterUnits="userSpaceOnUse" color-interpolation-filters="sRGB">
<feFlood flood-opacity="0" result="BackgroundImageFix"/>
<feBlend mode="normal" in="SourceGraphic" in2="BackgroundImageFix" result="shape"/>
<feGaussianBlur stdDeviation="0.5" result="effect1_foregroundBlur_459_1526"/>
</filter>
<filter id="filter37_f_459_1526" x="96.2773" y="137.777" width="3.75098" height="4.03418" filterUnits="userSpaceOnUse" color-interpolation-filters="sRGB">
<feFlood flood-opacity="0" result="BackgroundImageFix"/>
<feBlend mode="normal" in="SourceGraphic" in2="BackgroundImageFix" result="shape"/>
<feGaussianBlur stdDeviation="0.5" result="effect1_foregroundBlur_459_1526"/>
</filter>
<filter id="filter38_f_459_1526" x="122.351" y="96.2422" width="3.75098" height="4.03418" filterUnits="userSpaceOnUse" color-interpolation-filters="sRGB">
<feFlood flood-opacity="0" result="BackgroundImageFix"/>
<feBlend mode="normal" in="SourceGraphic" in2="BackgroundImageFix" result="shape"/>
<feGaussianBlur stdDeviation="0.5" result="effect1_foregroundBlur_459_1526"/>
</filter>
<filter id="filter39_f_459_1526" x="105.503" y="61.2539" width="3.75098" height="4.03418" filterUnits="userSpaceOnUse" color-interpolation-filters="sRGB">
<feFlood flood-opacity="0" result="BackgroundImageFix"/>
<feBlend mode="normal" in="SourceGraphic" in2="BackgroundImageFix" result="shape"/>
<feGaussianBlur stdDeviation="0.5" result="effect1_foregroundBlur_459_1526"/>
</filter>
<filter id="filter40_f_459_1526" x="43.5674" y="82.4453" width="3.75098" height="4.03418" filterUnits="userSpaceOnUse" color-interpolation-filters="sRGB">
<feFlood flood-opacity="0" result="BackgroundImageFix"/>
<feBlend mode="normal" in="SourceGraphic" in2="BackgroundImageFix" result="shape"/>
<feGaussianBlur stdDeviation="0.5" result="effect1_foregroundBlur_459_1526"/>
</filter>
<filter id="filter41_f_459_1526" x="122.077" y="153.25" width="3.75098" height="4.03418" filterUnits="userSpaceOnUse" color-interpolation-filters="sRGB">
<feFlood flood-opacity="0" result="BackgroundImageFix"/>
<feBlend mode="normal" in="SourceGraphic" in2="BackgroundImageFix" result="shape"/>
<feGaussianBlur stdDeviation="0.5" result="effect1_foregroundBlur_459_1526"/>
</filter>
<filter id="filter42_f_459_1526" x="69.8223" y="39.5068" width="3.75098" height="4.03418" filterUnits="userSpaceOnUse" color-interpolation-filters="sRGB">
<feFlood flood-opacity="0" result="BackgroundImageFix"/>
<feBlend mode="normal" in="SourceGraphic" in2="BackgroundImageFix" result="shape"/>
<feGaussianBlur stdDeviation="0.5" result="effect1_foregroundBlur_459_1526"/>
</filter>
<filter id="filter43_f_459_1526" x="129.263" y="136.356" width="3.75098" height="4.03418" filterUnits="userSpaceOnUse" color-interpolation-filters="sRGB">
<feFlood flood-opacity="0" result="BackgroundImageFix"/>
<feBlend mode="normal" in="SourceGraphic" in2="BackgroundImageFix" result="shape"/>
<feGaussianBlur stdDeviation="0.5" result="effect1_foregroundBlur_459_1526"/>
</filter>
<filter id="filter44_f_459_1526" x="143.814" y="101.169" width="3.75098" height="4.03418" filterUnits="userSpaceOnUse" color-interpolation-filters="sRGB">
<feFlood flood-opacity="0" result="BackgroundImageFix"/>
<feBlend mode="normal" in="SourceGraphic" in2="BackgroundImageFix" result="shape"/>
<feGaussianBlur stdDeviation="0.5" result="effect1_foregroundBlur_459_1526"/>
</filter>
<filter id="filter45_f_459_1526" x="126.967" y="66.1807" width="3.75098" height="4.03418" filterUnits="userSpaceOnUse" color-interpolation-filters="sRGB">
<feFlood flood-opacity="0" result="BackgroundImageFix"/>
<feBlend mode="normal" in="SourceGraphic" in2="BackgroundImageFix" result="shape"/>
<feGaussianBlur stdDeviation="0.5" result="effect1_foregroundBlur_459_1526"/>
</filter>
<filter id="filter46_f_459_1526" x="56.3535" y="49.8799" width="3.75098" height="4.03418" filterUnits="userSpaceOnUse" color-interpolation-filters="sRGB">
<feFlood flood-opacity="0" result="BackgroundImageFix"/>
<feBlend mode="normal" in="SourceGraphic" in2="BackgroundImageFix" result="shape"/>
<feGaussianBlur stdDeviation="0.5" result="effect1_foregroundBlur_459_1526"/>
</filter>
<filter id="filter47_f_459_1526" x="65.0322" y="87.3721" width="3.75098" height="4.03418" filterUnits="userSpaceOnUse" color-interpolation-filters="sRGB">
<feFlood flood-opacity="0" result="BackgroundImageFix"/>
<feBlend mode="normal" in="SourceGraphic" in2="BackgroundImageFix" result="shape"/>
<feGaussianBlur stdDeviation="0.5" result="effect1_foregroundBlur_459_1526"/>
</filter>
<filter id="filter48_f_459_1526" x="77.0078" y="22.6143" width="3.75098" height="4.03418" filterUnits="userSpaceOnUse" color-interpolation-filters="sRGB">
<feFlood flood-opacity="0" result="BackgroundImageFix"/>
<feBlend mode="normal" in="SourceGraphic" in2="BackgroundImageFix" result="shape"/>
<feGaussianBlur stdDeviation="0.5" result="effect1_foregroundBlur_459_1526"/>
</filter>
<filter id="filter49_f_459_1526" x="82.0713" y="137.358" width="3.75098" height="4.03418" filterUnits="userSpaceOnUse" color-interpolation-filters="sRGB">
<feFlood flood-opacity="0" result="BackgroundImageFix"/>
<feBlend mode="normal" in="SourceGraphic" in2="BackgroundImageFix" result="shape"/>
<feGaussianBlur stdDeviation="0.5" result="effect1_foregroundBlur_459_1526"/>
</filter>
<filter id="filter50_f_459_1526" x="117.037" y="176.211" width="4.21289" height="4.68555" filterUnits="userSpaceOnUse" color-interpolation-filters="sRGB">
<feFlood flood-opacity="0" result="BackgroundImageFix"/>
<feBlend mode="normal" in="SourceGraphic" in2="BackgroundImageFix" result="shape"/>
<feGaussianBlur stdDeviation="0.5" result="effect1_foregroundBlur_459_1526"/>
</filter>
<filter id="filter51_f_459_1526" x="124.222" y="159.317" width="4.21289" height="4.68555" filterUnits="userSpaceOnUse" color-interpolation-filters="sRGB">
<feFlood flood-opacity="0" result="BackgroundImageFix"/>
<feBlend mode="normal" in="SourceGraphic" in2="BackgroundImageFix" result="shape"/>
<feGaussianBlur stdDeviation="0.5" result="effect1_foregroundBlur_459_1526"/>
</filter>
<filter id="filter52_f_459_1526" x="71.9668" y="45.5752" width="4.21289" height="4.68555" filterUnits="userSpaceOnUse" color-interpolation-filters="sRGB">
<feFlood flood-opacity="0" result="BackgroundImageFix"/>
<feBlend mode="normal" in="SourceGraphic" in2="BackgroundImageFix" result="shape"/>
<feGaussianBlur stdDeviation="0.5" result="effect1_foregroundBlur_459_1526"/>
</filter>
<filter id="filter53_f_459_1526" x="77.0303" y="160.319" width="4.21289" height="4.68555" filterUnits="userSpaceOnUse" color-interpolation-filters="sRGB">
<feFlood flood-opacity="0" result="BackgroundImageFix"/>
<feBlend mode="normal" in="SourceGraphic" in2="BackgroundImageFix" result="shape"/>
<feGaussianBlur stdDeviation="0.5" result="effect1_foregroundBlur_459_1526"/>
</filter>
<filter id="filter54_f_459_1526" x="129.971" y="185.802" width="4.41797" height="4.49805" filterUnits="userSpaceOnUse" color-interpolation-filters="sRGB">
<feFlood flood-opacity="0" result="BackgroundImageFix"/>
<feBlend mode="normal" in="SourceGraphic" in2="BackgroundImageFix" result="shape"/>
<feGaussianBlur stdDeviation="0.5" result="effect1_foregroundBlur_459_1526"/>
</filter>
<filter id="filter55_f_459_1526" x="137.155" y="168.908" width="4.41797" height="4.49805" filterUnits="userSpaceOnUse" color-interpolation-filters="sRGB">
<feFlood flood-opacity="0" result="BackgroundImageFix"/>
<feBlend mode="normal" in="SourceGraphic" in2="BackgroundImageFix" result="shape"/>
<feGaussianBlur stdDeviation="0.5" result="effect1_foregroundBlur_459_1526"/>
</filter>
<filter id="filter56_f_459_1526" x="89.9648" y="169.91" width="4.41797" height="4.49805" filterUnits="userSpaceOnUse" color-interpolation-filters="sRGB">
<feFlood flood-opacity="0" result="BackgroundImageFix"/>
<feBlend mode="normal" in="SourceGraphic" in2="BackgroundImageFix" result="shape"/>
<feGaussianBlur stdDeviation="0.5" result="effect1_foregroundBlur_459_1526"/>
</filter>
<filter id="filter57_f_459_1526" x="74.3945" y="147.058" width="3.75098" height="4.03418" filterUnits="userSpaceOnUse" color-interpolation-filters="sRGB">
<feFlood flood-opacity="0" result="BackgroundImageFix"/>
<feBlend mode="normal" in="SourceGraphic" in2="BackgroundImageFix" result="shape"/>
<feGaussianBlur stdDeviation="0.5" result="effect1_foregroundBlur_459_1526"/>
</filter>
<filter id="filter58_f_459_1526" x="69.0117" y="117.124" width="3.75098" height="4.03418" filterUnits="userSpaceOnUse" color-interpolation-filters="sRGB">
<feFlood flood-opacity="0" result="BackgroundImageFix"/>
<feBlend mode="normal" in="SourceGraphic" in2="BackgroundImageFix" result="shape"/>
<feGaussianBlur stdDeviation="0.5" result="effect1_foregroundBlur_459_1526"/>
</filter>
<filter id="filter59_f_459_1526" x="67.751" y="65.874" width="6.16504" height="6.69824" filterUnits="userSpaceOnUse" color-interpolation-filters="sRGB">
<feFlood flood-opacity="0" result="BackgroundImageFix"/>
<feBlend mode="normal" in="SourceGraphic" in2="BackgroundImageFix" result="shape"/>
<feGaussianBlur stdDeviation="0.5" result="effect1_foregroundBlur_459_1526"/>
</filter>
<filter id="filter60_f_459_1526" x="76.7539" y="47.3193" width="12.165" height="12.6982" filterUnits="userSpaceOnUse" color-interpolation-filters="sRGB">
<feFlood flood-opacity="0" result="BackgroundImageFix"/>
<feBlend mode="normal" in="SourceGraphic" in2="BackgroundImageFix" result="shape"/>
<feGaussianBlur stdDeviation="2" result="effect1_foregroundBlur_459_1526"/>
</filter>
<filter id="filter61_f_459_1526" x="69.9189" y="99.1953" width="11.7158" height="11.9941" filterUnits="userSpaceOnUse" color-interpolation-filters="sRGB">
<feFlood flood-opacity="0" result="BackgroundImageFix"/>
<feBlend mode="normal" in="SourceGraphic" in2="BackgroundImageFix" result="shape"/>
<feGaussianBlur stdDeviation="2" result="effect1_foregroundBlur_459_1526"/>
</filter>
<filter id="filter62_f_459_1526" x="67.4092" y="132.187" width="8.64453" height="8.99316" filterUnits="userSpaceOnUse" color-interpolation-filters="sRGB">
<feFlood flood-opacity="0" result="BackgroundImageFix"/>
<feBlend mode="normal" in="SourceGraphic" in2="BackgroundImageFix" result="shape"/>
<feGaussianBlur stdDeviation="1" result="effect1_foregroundBlur_459_1526"/>
</filter>
<filter id="filter63_f_459_1526" x="148.87" y="134.407" width="12.165" height="12.6982" filterUnits="userSpaceOnUse" color-interpolation-filters="sRGB">
<feFlood flood-opacity="0" result="BackgroundImageFix"/>
<feBlend mode="normal" in="SourceGraphic" in2="BackgroundImageFix" result="shape"/>
<feGaussianBlur stdDeviation="2" result="effect1_foregroundBlur_459_1526"/>
</filter>
<filter id="filter64_f_459_1526" x="128.559" y="143.492" width="8.16504" height="8.69824" filterUnits="userSpaceOnUse" color-interpolation-filters="sRGB">
<feFlood flood-opacity="0" result="BackgroundImageFix"/>
<feBlend mode="normal" in="SourceGraphic" in2="BackgroundImageFix" result="shape"/>
<feGaussianBlur stdDeviation="1" result="effect1_foregroundBlur_459_1526"/>
</filter>
<filter id="filter65_f_459_1526" x="99.293" y="120.838" width="12.165" height="12.6982" filterUnits="userSpaceOnUse" color-interpolation-filters="sRGB">
<feFlood flood-opacity="0" result="BackgroundImageFix"/>
<feBlend mode="normal" in="SourceGraphic" in2="BackgroundImageFix" result="shape"/>
<feGaussianBlur stdDeviation="2" result="effect1_foregroundBlur_459_1526"/>
</filter>
<filter id="filter66_f_459_1526" x="124.215" y="116.545" width="8.16504" height="8.69824" filterUnits="userSpaceOnUse" color-interpolation-filters="sRGB">
<feFlood flood-opacity="0" result="BackgroundImageFix"/>
<feBlend mode="normal" in="SourceGraphic" in2="BackgroundImageFix" result="shape"/>
<feGaussianBlur stdDeviation="1" result="effect1_foregroundBlur_459_1526"/>
</filter>
<filter id="filter67_f_459_1526" x="147.978" y="174.222" width="12.165" height="12.6982" filterUnits="userSpaceOnUse" color-interpolation-filters="sRGB">
<feFlood flood-opacity="0" result="BackgroundImageFix"/>
<feBlend mode="normal" in="SourceGraphic" in2="BackgroundImageFix" result="shape"/>
<feGaussianBlur stdDeviation="2" result="effect1_foregroundBlur_459_1526"/>
</filter>
</defs>
</svg>
