<svg width="14" height="17" viewBox="0 0 14 17" fill="none" xmlns="http://www.w3.org/2000/svg">
<path d="M6.82952 14.3112C6.99254 14.2977 7.13179 14.2331 7.24727 14.1177C7.36275 14.0022 7.42049 13.8629 7.42049 13.6999C7.42049 13.5097 7.35935 13.3569 7.23708 13.2414C7.11481 13.1259 6.95858 13.075 6.76838 13.0886C6.21138 13.1293 5.62042 12.9765 4.99549 12.63C4.37056 12.2836 3.97658 11.6553 3.81355 10.7451C3.78638 10.5956 3.71506 10.4734 3.59958 10.3783C3.48411 10.2832 3.35165 10.2356 3.20221 10.2356C3.01201 10.2356 2.85578 10.3069 2.73351 10.4496C2.61124 10.5922 2.57049 10.7587 2.61124 10.9488C2.84219 12.1851 3.38561 13.0682 4.24149 13.598C5.09738 14.1278 5.96005 14.3656 6.82952 14.3112ZM6.60536 16.7566C4.74415 16.7566 3.19202 16.1181 1.94895 14.8411C0.705884 13.564 0.0843506 11.9745 0.0843506 10.0726C0.0843506 8.71405 0.624372 7.23663 1.70441 5.64034C2.78446 4.04405 4.4181 2.31531 6.60536 0.454102C8.79261 2.31531 10.4263 4.04405 11.5063 5.64034C12.5863 7.23663 13.1264 8.71405 13.1264 10.0726C13.1264 11.9745 12.5048 13.564 11.2618 14.8411C10.0187 16.1181 8.46656 16.7566 6.60536 16.7566Z" fill="#58A9FF"/>
</svg>
